PathFileType	4	(X/Y/Z)	Patient4_TMGait_0pt4_03_left_41.trc.trc
DataRate	CameraRate	NumFrames	NumMarkers	Units	OrigDataRate	OrigDataStartFrame	OrigNumFrames
74.468085106383	74.468085106383	6	33	mm	74.468085106383	124	       141
Frame#	Time	Sacral			L.Shoulder			Chest			R.Shoulder			Neck			R.ASIS			L.ASIS			R.Thigh.Superior			R.Thigh.Lateral			R.Thigh.Inferior			R.Patella			L.Thigh.Superior			L.Thigh.Lateral			L.Thigh.Inferior			L.Patella			L.Shank.Superior			L.Shank.Lateral			L.Shank.Inferior			R.Shank.Superior			R.Shank.Lateral			R.Shank.Inferior			R.Heel			R.Midfoot.Superior			R.Midfoot.Lateral			R.Toe			L.Heel			L.Midfoot.Lateral			L.Midfoot.Superior			L.Toe			L.Elbow			L.Wrist			R.Elbow			R.Wrist			
		X1	Y1	Z1	X2	Y2	Z2	X3	Y3	Z3	X4	Y4	Z4	X5	Y5	Z5	X6	Y6	Z6	X7	Y7	Z7	X8	Y8	Z8	X9	Y9	Z9	X10	Y10	Z10	X11	Y11	Z11	X12	Y12	Z12	X13	Y13	Z13	X14	Y14	Z14	X15	Y15	Z15	X16	Y16	Z16	X17	Y17	Z17	X18	Y18	Z18	X19	Y19	Z19	X20	Y20	Z20	X21	Y21	Z21	X22	Y22	Z22	X23	Y23	Z23	X24	Y24	Z24	X25	Y25	Z25	X26	Y26	Z26	X27	Y27	Z27	X28	Y28	Z28	X29	Y29	Z29	X30	Y30	Z30	X31	Y31	Z31	X32	Y32	Z32	X33	Y33	Z33	

124	55.951714285714	963.439270296003	999.680482975976	518.155790030805	1095.545317724940	1425.828221606394	306.734734160112	1232.726478892127	1360.250068931820	441.429312414189	1189.976481700911	1434.698209620480	629.081106610824	1111.318191621363	1488.567003723127	461.790962408933	1207.562417974664	933.908625575008	593.082790545547	1148.109832726146	957.745661774017	324.222082291621	1207.969445140865	722.622098102884	565.826240262530	1115.023417710570	625.131854426973	639.226204079838	1168.377286891418	561.936851638245	553.220014147576	1151.743808369056	475.580508500641	560.833872689912	1226.060405474944	765.792657268357	349.100956496316	1164.262873423161	637.212080717666	282.656293051788	1268.584334410635	576.480697998574	338.428330557002	1289.595576141311	510.056595552611	336.845210169509	1270.378187218433	438.204216554986	326.804421026042	1196.620810073214	311.674246096639	278.876276605319	1280.713912669302	208.760549796182	331.114183909517	1111.846149989668	391.049484254566	572.273275009597	1030.999671038263	298.861066447700	641.744270418363	1052.282440423192	198.858984495017	576.210456452763	900.537974106796	43.121537447930	553.534650077377	1071.362475660940	95.552551144280	585.749725469651	984.394245234541	36.872447145634	627.632138897919	1192.395154148250	43.034429134447	613.264787854665	1187.515238347316	40.456767271812	373.609231542240	1258.500883265140	38.201067557278	290.750525662905	1337.653381513835	106.720566166372	311.036465197558	1466.822040889198	63.603827351356	279.268733679371	974.250892668638	1084.124848875009	241.234550488095	972.086359569335	823.699043775221	227.463038399878	1340.628223129338	1130.262260963392	738.029608445945	1530.777300797332	1252.457547476008	635.960554583863	
125	55.965142857143	964.857691282803	998.718942912559	515.019334813442	1095.566845192936	1424.709981371440	303.322223021370	1232.656626485501	1360.150987538467	438.568562834566	1188.903615727179	1434.569238597774	626.038821946996	1110.661713769275	1487.906167392615	458.429296913102	1208.871448633594	933.382833077587	591.200281729495	1150.534007954452	956.877864896280	322.255300351067	1208.467091363839	721.585473886046	564.597033538064	1114.027848416368	624.675264738769	637.473509902372	1167.360256476925	560.863763249500	551.988061830460	1150.007006043785	474.232840343598	559.493213238459	1228.361269660729	764.259844329221	347.569415476868	1165.089821360160	635.932121891384	281.837719688447	1269.123749655569	575.054878016454	337.827017397135	1288.640191413823	507.785346649192	337.026596857655	1269.159690116538	435.615898865887	326.829286043605	1193.953806040166	309.905520984344	278.834513498896	1276.120641851024	206.060689156474	332.149726624779	1109.206948392265	390.277770532374	571.068340523921	1027.408253803904	299.118697456976	640.837041782208	1047.876758429197	198.634231546179	575.769980317036	895.085318164076	43.287719557461	553.604000346381	1066.053097239726	95.550942085177	585.722988362571	979.015966889106	36.855874429701	627.630837583497	1187.087581433324	42.757952741037	613.423499399741	1179.688593882787	39.730101649860	374.692056960842	1250.451741845427	37.033719399663	291.540429719447	1331.056962952244	103.612144441156	312.731072639315	1459.588362008284	58.141492683290	280.231831977440	976.115859979853	1082.326582323803	237.918602591179	974.744170630694	821.884706249365	224.393805048559	1340.174285337543	1129.898782518826	734.763802177211	1531.517869455294	1250.696231438691	632.730590508344	
126	55.978571428571	966.175171334457	997.951382214421	511.824127730391	1095.774812625961	1423.688034770978	299.757913559673	1232.690629218132	1360.125248477520	435.628603530226	1187.898094296933	1434.588965024591	622.884685951198	1110.112414320509	1487.376537544540	454.917879548360	1210.066584488461	932.964027086863	589.208522206652	1152.839057146095	956.225119228530	320.214858876981	1209.125839053388	720.677794949386	563.139111208566	1113.459615000580	624.203592737204	635.503161150079	1166.869515570524	559.862481732708	550.458173334955	1148.983871245100	472.750858992781	557.980127028600	1230.663359272472	763.138311829753	346.036802462255	1166.189783809710	635.127900624319	280.766941152966	1269.885298000573	574.075975030168	337.032572615472	1287.926485739403	506.018487314028	336.968394653272	1268.296350419000	433.510205182168	326.597894826071	1191.876272753143	308.579117469915	278.277367515495	1272.017724821424	203.871583800947	332.847853195381	1107.055333582587	389.465454751999	569.700671629522	1024.173810586061	299.494035575202	639.798283090750	1043.689922373936	198.485856232187	575.253901799038	889.624894459441	43.710966081864	553.682939927702	1060.846487002347	95.597208779231	585.703400016618	973.666098871873	36.943553800669	627.614025232657	1181.838881844079	42.412897933206	613.582780344474	1172.528061930940	39.211547136269	375.348216747797	1243.146968097230	36.248689647869	291.971730546948	1324.901029878073	101.226054888358	314.048144630998	1452.942970788685	53.905227502085	280.961015582878	978.628143774391	1080.452726927746	234.194527632033	978.368333205014	819.995855284167	220.849028414655	1339.002291515793	1129.321427061303	731.743180066500	1532.267905690342	1247.712511687393	629.794281407067	
127	55.992000000000	967.348368153335	997.421176622392	508.599873235747	1096.161093882385	1422.818323555174	296.086058508878	1232.827752010107	1360.187385702436	432.629132959207	1187.003998733241	1434.790608033058	619.631997896659	1109.687525207692	1487.015978660629	451.288305113763	1211.087511867360	932.702535937371	587.105212867198	1154.953275480443	955.822776874931	318.077949238731	1209.921127293528	719.966065462196	561.424186857765	1113.404986968668	623.739544384063	633.336713373899	1167.019233854577	558.979973128095	548.643042957287	1148.844724176785	471.148134115278	556.367085656733	1232.907949170045	762.483962761457	344.465659068370	1167.523221906601	634.791731467724	279.451064103105	1270.815284019666	573.519379488120	336.005296231889	1287.452936431055	504.760695666444	336.634450949384	1267.747369557513	431.899686697820	326.127120224514	1190.331072527848	307.707648411366	277.272452796670	1268.372884796187	202.209904745045	333.228528609158	1105.531063836498	388.635860169935	568.225538327822	1021.399951260824	300.039769653975	638.656441999039	1039.804742183319	198.466732913778	574.691201285305	884.188417712179	44.536559309099	553.774547779218	1055.798261131502	95.713253232997	585.711336721486	968.363704609135	37.210881859152	627.585254903266	1176.652145658063	41.993774543924	613.736519861749	1166.066765673191	38.889577214618	375.640177158853	1236.611638872950	35.800447345236	292.107590753893	1319.196484406662	99.558108169685	314.981480294159	1446.896428896844	50.914079795780	281.460161592834	981.761503211558	1078.583811921160	230.094290279666	982.969641968486	818.115911561309	216.855962521169	1337.114716750453	1128.561700679703	728.941838837974	1532.987116201447	1243.498360681786	627.154936722539	
128	56.005428571429	968.347087153271	997.144502829484	505.353323005784	1096.706565820996	1422.144013125761	292.348325480622	1233.054228946330	1360.347834256703	429.592199499499	1186.234567047412	1435.191123737371	616.297420761926	1109.388824622223	1486.847957464543	447.571419638923	1211.887818836930	932.638016551296	584.891787620779	1156.837877678756	955.680776199989	315.820874739221	1210.848657564264	719.511988274823	559.450209176482	1113.948676317577	623.309922221580	631.011480910065	1167.934162367581	558.262698746471	546.587859385213	1149.759851566676	469.453642638901	554.751416907326	1235.035593904826	762.281677388449	342.807839753617	1168.991781327256	634.850998748134	277.920045599089	1271.809683970895	573.297651042879	334.732289285161	1287.159896197672	503.945806059979	336.028210578374	1267.404555107221	430.733209667634	325.462191032616	1189.164552945520	307.244930723962	275.949097905925	1265.073185734470	201.028026499434	333.348518061266	1104.787132223474	387.820457489062	566.716953921933	1019.202651216849	300.819453851350	637.447637658419	1036.321609813474	198.641329591467	574.121467382740	878.830640672467	45.936650677837	553.882183580625	1050.976153321567	95.924754067963	585.768805627869	963.137630793353	37.754791913674	627.550703578703	1171.522989458631	41.503419023737	613.877601013068	1160.225556862247	38.730005427836	375.655321576085	1230.751184195981	35.617369543211	292.027314790249	1313.873552902428	98.525418786609	315.569387914979	1441.362147516188	49.045576364533	281.753981557570	985.476367473313	1076.793722969966	225.652119567793	988.562618173673	816.326666271311	212.443714738206	1334.514429706467	1127.654348359572	726.323353637044	1533.611839188550	1238.031464210904	624.813815518169	
129	56.018857142857	969.152881301021	997.110910190686	502.068142186592	1097.386336068902	1421.690773338190	288.577111105649	1233.344073921268	1360.612724258345	426.540669930974	1185.566921160858	1435.788712582729	612.900208844791	1109.203479997964	1486.879935009575	443.792906517460	1212.436874671284	932.792829767581	582.574605045055	1158.487309772537	955.785812000836	313.427321618080	1211.934160397793	719.366231045411	557.243479486327	1115.173413290186	622.942723781641	628.575294794560	1169.745787959617	557.754000065745	544.363792096868	1151.889052343046	467.713170487873	553.238142038093	1236.985944702637	762.445627532866	341.009123222003	1170.437711358077	635.183324015690	276.221922767612	1272.722670218423	573.282304817734	333.230306158528	1286.934885295035	503.462453483199	335.191332677249	1267.110774943459	429.918789222781	324.663898557691	1188.166339610842	307.102501671117	274.467015742928	1261.963824800336	200.236697906943	333.284775000396	1104.983285268153	387.058895148241	565.256579862368	1017.709948400304	301.905694490722	636.209320104391	1033.357730841052	199.084749289910	573.589611170013	873.633835461336	48.104280598350	554.009048587178	1046.458669025397	96.261008242090	585.895497635627	958.029195238190	38.693364066839	627.518097403941	1166.439925909790	40.954023122548	613.997869486364	1154.858499184123	38.687141950799	375.488344985798	1225.401485865283	35.618691507453	291.812418619221	1308.819056295772	97.996975373083	315.880081097687	1436.199957123013	48.086115433666	281.882394918729	989.723678347111	1075.142699618917	220.901217386893	995.164916398677	814.702748909762	207.641662538311	1331.204037391693	1126.632880783080	723.844780818225	1534.051146069380	1231.273118966042	622.770928801462	
